HIERARCHY
ROOT mixamorig:Hips
{
	OFFSET 0.000000 201.639420 0.000000
	CHANNELS 6 Xposition Yposition Zposition Xrotation Yrotation Zrotation
	JOINT mixamorig:Spine
	{
		OFFSET 0.006200 19.524994 -2.481800
		CHANNELS 3 Xrotation Yrotation Zrotation
		JOINT mixamorig:Spine1
		{
			OFFSET -0.000900 22.835007 -2.825400
			CHANNELS 3 Xrotation Yrotation Zrotation
			JOINT mixamorig:Spine2
			{
				OFFSET -0.020600 26.552490 -3.193300
				CHANNELS 3 Xrotation Yrotation Zrotation
				JOINT mixamorig:Neck
				{
					OFFSET -0.060000 30.701813 1.352200
					CHANNELS 3 Xrotation Yrotation Zrotation
					JOINT mixamorig:Head
					{
						OFFSET -0.087200 22.547607 3.670900
						CHANNELS 3 Xrotation Yrotation Zrotation
						JOINT mixamorig:HeadTop_End
						{
							OFFSET -0.830600 40.355194 7.893500
							CHANNELS 3 Xrotation Yrotation Zrotation
							End Site
							{
								OFFSET 0.000000 30.592346 0.000000
							}
						}
						JOINT mixamorig:RightEye
						{
							OFFSET -6.302100 18.118591 16.197100
							CHANNELS 3 Xrotation Yrotation Zrotation
							End Site
							{
								OFFSET 0.000000 30.592346 0.000000
							}
						}
						JOINT mixamorig:LeftEye
						{
							OFFSET 6.741500 18.382690 16.401899
							CHANNELS 3 Xrotation Yrotation Zrotation
							End Site
							{
								OFFSET 0.000000 30.592346 0.000000
							}
						}
					}
				}
				JOINT mixamorig:LeftShoulder
				{
					OFFSET 11.924900 18.230499 1.425400
					CHANNELS 3 Xrotation Yrotation Zrotation
					JOINT mixamorig:LeftArm
					{
						OFFSET 25.435989 -0.697632 -5.229300
						CHANNELS 3 Xrotation Yrotation Zrotation
						JOINT mixamorig:LeftForeArm
						{
							OFFSET 54.684776 0.000000 0.000000
							CHANNELS 3 Xrotation Yrotation Zrotation
							JOINT mixamorig:LeftHand
							{
								OFFSET 55.098175 0.000000 0.000000
								CHANNELS 3 Xrotation Yrotation Zrotation
								JOINT mixamorig:LeftHandMiddle1
								{
									OFFSET 23.369751 0.000000 0.000000
									CHANNELS 3 Xrotation Yrotation Zrotation
									JOINT mixamorig:LeftHandMiddle2
									{
										OFFSET 6.378677 0.000000 0.000000
										CHANNELS 3 Xrotation Yrotation Zrotation
										JOINT mixamorig:LeftHandMiddle3
										{
											OFFSET 6.148331 0.000000 0.000000
											CHANNELS 3 Xrotation Yrotation Zrotation
											JOINT mixamorig:LeftHandMiddle4
											{
												OFFSET 6.582504 0.000000 0.000000
												CHANNELS 3 Xrotation Yrotation Zrotation
												End Site
												{
													OFFSET -1.168900 6.395691 1.028606
												}
											}
										}
									}
								}
								JOINT mixamorig:LeftHandThumb1
								{
									OFFSET 7.235672 -3.848206 5.434273
									CHANNELS 3 Xrotation Yrotation Zrotation
									JOINT mixamorig:LeftHandThumb2
									{
										OFFSET 6.568451 -3.792297 3.792300
										CHANNELS 3 Xrotation Yrotation Zrotation
										JOINT mixamorig:LeftHandThumb3
										{
											OFFSET 6.063080 -3.500519 3.500518
											CHANNELS 3 Xrotation Yrotation Zrotation
											JOINT mixamorig:LeftHandThumb4
											{
												OFFSET 4.793182 -2.767334 2.767349
												CHANNELS 3 Xrotation Yrotation Zrotation
												End Site
												{
													OFFSET 0.101639 6.054260 1.275483
												}
											}
										}
									}
								}
								JOINT mixamorig:LeftHandIndex1
								{
									OFFSET 23.101074 -0.309540 4.992809
									CHANNELS 3 Xrotation Yrotation Zrotation
									JOINT mixamorig:LeftHandIndex2
									{
										OFFSET 6.226883 0.000000 0.000000
										CHANNELS 3 Xrotation Yrotation Zrotation
										JOINT mixamorig:LeftHandIndex3
										{
											OFFSET 6.094330 0.000000 0.000000
											CHANNELS 3 Xrotation Yrotation Zrotation
											JOINT mixamorig:LeftHandIndex4
											{
												OFFSET 5.482605 0.000000 0.000000
												CHANNELS 3 Xrotation Yrotation Zrotation
												End Site
												{
													OFFSET -1.427902 5.233032 0.797164
												}
											}
										}
									}
								}
								JOINT mixamorig:LeftHandRing1
								{
									OFFSET 22.299240 0.021149 -3.964172
									CHANNELS 3 Xrotation Yrotation Zrotation
									JOINT mixamorig:LeftHandRing2
									{
										OFFSET 6.321869 0.000000 0.000000
										CHANNELS 3 Xrotation Yrotation Zrotation
										JOINT mixamorig:LeftHandRing3
										{
											OFFSET 5.899796 0.000000 0.000000
											CHANNELS 3 Xrotation Yrotation Zrotation
											JOINT mixamorig:LeftHandRing4
											{
												OFFSET 6.517899 0.000000 0.000000
												CHANNELS 3 Xrotation Yrotation Zrotation
												End Site
												{
													OFFSET -1.637299 6.232208 0.980890
												}
											}
										}
									}
								}
								JOINT mixamorig:LeftHandPinky1
								{
									OFFSET 20.463791 -0.302338 -8.562233
									CHANNELS 3 Xrotation Yrotation Zrotation
									JOINT mixamorig:LeftHandPinky2
									{
										OFFSET 6.908646 0.000000 0.000000
										CHANNELS 3 Xrotation Yrotation Zrotation
										JOINT mixamorig:LeftHandPinky3
										{
											OFFSET 4.622849 0.000000 0.000000
											CHANNELS 3 Xrotation Yrotation Zrotation
											JOINT mixamorig:LeftHandPinky4
											{
												OFFSET 5.216080 0.000000 0.000000
												CHANNELS 3 Xrotation Yrotation Zrotation
												End Site
												{
													OFFSET -0.606308 5.116241 0.814926
												}
											}
										}
									}
								}
							}
						}
					}
				}
				JOINT mixamorig:RightShoulder
				{
					OFFSET -12.001300 18.284088 1.348900
					CHANNELS 3 Xrotation Yrotation Zrotation
					JOINT mixamorig:RightArm
					{
						OFFSET -25.308500 -0.751312 -5.164599
						CHANNELS 3 Xrotation Yrotation Zrotation
						JOINT mixamorig:RightForeArm
						{
							OFFSET -54.684429 0.000000 0.000000
							CHANNELS 3 Xrotation Yrotation Zrotation
							JOINT mixamorig:RightHand
							{
								OFFSET -55.150291 0.000000 0.000000
								CHANNELS 3 Xrotation Yrotation Zrotation
								JOINT mixamorig:RightHandMiddle1
								{
									OFFSET -23.317566 0.000000 0.000000
									CHANNELS 3 Xrotation Yrotation Zrotation
									JOINT mixamorig:RightHandMiddle2
									{
										OFFSET -6.378403 0.000000 0.000000
										CHANNELS 3 Xrotation Yrotation Zrotation
										JOINT mixamorig:RightHandMiddle3
										{
											OFFSET -6.148193 0.000000 0.000000
											CHANNELS 3 Xrotation Yrotation Zrotation
											JOINT mixamorig:RightHandMiddle4
											{
												OFFSET -6.583389 0.000000 0.000000
												CHANNELS 3 Xrotation Yrotation Zrotation
												End Site
												{
													OFFSET 1.171692 6.395905 1.029786
												}
											}
										}
									}
								}
								JOINT mixamorig:RightHandThumb1
								{
									OFFSET -7.190521 -3.860474 5.435846
									CHANNELS 3 Xrotation Yrotation Zrotation
									JOINT mixamorig:RightHandThumb2
									{
										OFFSET -6.567429 -3.791718 3.791708
										CHANNELS 3 Xrotation Yrotation Zrotation
										JOINT mixamorig:RightHandThumb3
										{
											OFFSET -6.062469 -3.500153 3.500166
											CHANNELS 3 Xrotation Yrotation Zrotation
											JOINT mixamorig:RightHandThumb4
											{
												OFFSET -4.792618 -2.767029 2.767022
												CHANNELS 3 Xrotation Yrotation Zrotation
												End Site
												{
													OFFSET -0.100327 6.053253 1.276754
												}
											}
										}
									}
								}
								JOINT mixamorig:RightHandIndex1
								{
									OFFSET -23.048981 -0.310791 4.992554
									CHANNELS 3 Xrotation Yrotation Zrotation
									JOINT mixamorig:RightHandIndex2
									{
										OFFSET -6.227539 0.000000 0.000000
										CHANNELS 3 Xrotation Yrotation Zrotation
										JOINT mixamorig:RightHandIndex3
										{
											OFFSET -6.095047 0.000000 0.000000
											CHANNELS 3 Xrotation Yrotation Zrotation
											JOINT mixamorig:RightHandIndex4
											{
												OFFSET -5.484772 0.000000 0.000000
												CHANNELS 3 Xrotation Yrotation Zrotation
												End Site
												{
													OFFSET 1.420593 5.237305 0.797056
												}
											}
										}
									}
								}
								JOINT mixamorig:RightHandRing1
								{
									OFFSET -22.246323 0.020569 -3.963762
									CHANNELS 3 Xrotation Yrotation Zrotation
									JOINT mixamorig:RightHandRing2
									{
										OFFSET -6.322128 0.000000 0.000000
										CHANNELS 3 Xrotation Yrotation Zrotation
										JOINT mixamorig:RightHandRing3
										{
											OFFSET -5.900024 0.000000 0.000000
											CHANNELS 3 Xrotation Yrotation Zrotation
											JOINT mixamorig:RightHandRing4
											{
												OFFSET -6.518356 0.000000 0.000000
												CHANNELS 3 Xrotation Yrotation Zrotation
												End Site
												{
													OFFSET 1.636398 6.232697 0.982186
												}
											}
										}
									}
								}
								JOINT mixamorig:RightHandPinky1
								{
									OFFSET -20.411011 -0.303314 -8.561701
									CHANNELS 3 Xrotation Yrotation Zrotation
									JOINT mixamorig:RightHandPinky2
									{
										OFFSET -6.907349 0.000000 0.000000
										CHANNELS 3 Xrotation Yrotation Zrotation
										JOINT mixamorig:RightHandPinky3
										{
											OFFSET -4.623840 0.000000 0.000000
											CHANNELS 3 Xrotation Yrotation Zrotation
											JOINT mixamorig:RightHandPinky4
											{
												OFFSET -5.218353 0.000000 0.000000
												CHANNELS 3 Xrotation Yrotation Zrotation
												End Site
												{
													OFFSET 0.602097 5.118835 0.816273
												}
											}
										}
									}
								}
							}
						}
					}
				}
			}
		}
	}
	JOINT mixamorig:LeftUpLeg
	{
		OFFSET 18.168400 -13.561905 -0.039000
		CHANNELS 3 Xrotation Yrotation Zrotation
		JOINT mixamorig:LeftLeg
		{
			OFFSET 0.577358 -80.825211 -3.695000
			CHANNELS 3 Xrotation Yrotation Zrotation
			JOINT mixamorig:LeftFoot
			{
				OFFSET -0.577356 -83.370262 -6.520700
				CHANNELS 3 Xrotation Yrotation Zrotation
				JOINT mixamorig:LeftToeBase
				{
					OFFSET 0.750401 -20.798306 25.135401
					CHANNELS 3 Xrotation Yrotation Zrotation
					JOINT mixamorig:LeftToe_End
					{
						OFFSET -0.000500 0.001200 19.917799
						CHANNELS 3 Xrotation Yrotation Zrotation
						End Site
						{
							OFFSET 0.000000 19.917805 0.000000
						}
					}
				}
			}
		}
	}
	JOINT mixamorig:RightUpLeg
	{
		OFFSET -18.162500 -13.585098 -0.041000
		CHANNELS 3 Xrotation Yrotation Zrotation
		JOINT mixamorig:RightLeg
		{
			OFFSET -0.595024 -80.945297 -3.631900
			CHANNELS 3 Xrotation Yrotation Zrotation
			JOINT mixamorig:RightFoot
			{
				OFFSET 0.595024 -83.218193 -6.561200
				CHANNELS 3 Xrotation Yrotation Zrotation
				JOINT mixamorig:RightToeBase
				{
					OFFSET -0.753601 -20.807106 25.115000
					CHANNELS 3 Xrotation Yrotation Zrotation
					JOINT mixamorig:RightToe_End
					{
						OFFSET 0.000299 0.001700 19.918200
						CHANNELS 3 Xrotation Yrotation Zrotation
						End Site
						{
							OFFSET 0.000000 19.918203 0.000000
						}
					}
				}
			}
		}
	}
}
MOTION
Frames: 4
Frame Time: 0.033333
8.500311 195.354660 38.950615 -5.690109 -30.716635 -1.876323 3.756963 -2.019704 2.062890 3.759292 -1.774681 1.176931 3.755707 -1.773457 1.190724 -0.735334 12.660218 -0.110101 7.778502 23.746500 -10.823703 0.000001 0.000000 0.000000 0.000001 0.000000 0.000000 0.000001 0.000000 0.000000 -0.532925 1.927202 -4.762832 -14.686949 -41.637940 -56.615206 -0.000001 -67.111000 0.000000 -82.923203 -4.705214 5.756943 0.637262 2.897835 -24.800110 0.252797 1.852168 -15.543009 0.439927 2.426059 -20.553207 0.000002 -0.000000 0.000002 2.878540 -8.103584 11.033783 0.625932 0.078938 -1.235823 5.007877 0.601610 -11.760604 -0.000001 0.000001 -0.000001 0.622293 2.865232 -24.502132 0.289839 1.980500 -16.651088 0.414916 2.358326 -19.953920 -0.000001 -0.000001 -0.000003 0.644658 2.913767 -24.946064 0.248870 1.838014 -15.421129 0.439959 2.426115 -20.553755 -0.000002 -0.000001 0.000001 2.394064 6.626791 -24.973490 0.185206 -2.451197 -13.920636 0.496474 2.571689 -21.849995 -0.000001 -0.000001 -0.000001 4.391368 18.111167 10.101933 12.795893 26.311156 41.610469 0.000317 100.085453 -0.000307 0.514716 -11.487776 -24.818795 0.814222 -3.269933 27.957470 0.324318 -2.102761 17.534482 0.559801 -2.738020 23.105550 0.000001 -0.000001 0.000001 -6.712733 -16.291728 -7.267108 0.937918 -0.115752 1.884203 4.764820 -34.608288 -18.782759 0.000001 -0.000006 0.000001 0.795348 -3.234216 27.624929 0.368720 -2.238293 18.706671 0.530519 -2.668439 22.484657 0.000001 0.000001 -0.000006 0.823164 -3.286727 28.113791 0.318787 -2.085081 17.382662 0.560610 -2.739948 23.122770 -0.000000 -0.000002 -0.000000 0.844094 -3.325509 28.476725 0.249901 -1.851002 15.377869 0.621298 -2.877694 24.360536 -0.000001 0.000001 0.000001 -19.252654 11.775793 11.139849 19.009844 7.333412 2.892883 6.024760 -0.135499 -8.590235 -0.251338 0.000004 -0.000000 -0.000000 -0.000000 -0.000000 -4.737422 -6.055792 -9.916151 23.715643 8.572590 -5.077116 -15.824766 2.785221 10.387926 -0.045882 -0.000021 0.000002 -0.000000 -0.000000 0.000000 
8.445887 195.203888 38.675858 -5.600063 -30.794174 -1.808834 3.747644 -1.981029 2.012968 3.745197 -1.739311 1.165013 3.741705 -1.738155 1.178484 -0.734723 12.615052 -0.146206 7.675891 23.681074 -10.700582 0.000001 -0.000000 0.000000 0.000001 -0.000000 0.000000 0.000001 -0.000000 0.000000 -0.530841 1.916991 -4.721749 -14.762969 -41.742547 -56.584381 0.000020 -67.012256 0.000012 -82.753998 -4.748689 5.959788 0.633692 2.890087 -24.729472 0.251079 1.845986 -15.489786 0.437483 2.419466 -20.494783 0.000002 0.000003 0.000003 2.879598 -8.071359 11.036261 0.625931 0.078933 -1.235821 5.002550 0.602013 -11.762009 -0.000001 -0.000002 0.000004 0.618797 2.857545 -24.432203 0.287916 1.974066 -16.595369 0.412564 2.351842 -19.896713 -0.000000 -0.000001 0.000000 0.641054 2.906004 -24.875091 0.247180 1.831859 -15.368211 0.437485 2.419515 -20.495239 0.000001 0.000000 -0.000000 2.385750 6.621162 -24.901555 0.183762 -2.457019 -13.871003 0.493772 2.564956 -21.789779 -0.000007 -0.000000 0.000002 4.388426 18.070705 10.060109 12.751661 26.408387 41.708598 -0.000107 100.083862 0.000087 0.290610 -11.348185 -25.032382 0.814053 -3.269672 27.954859 0.324285 -2.102598 17.533179 0.559706 -2.737779 23.103472 -0.000002 -0.000001 -0.000001 -6.724432 -16.309390 -7.268469 0.937924 -0.115754 1.884203 4.755288 -34.660608 -18.831352 -0.000001 0.000003 -0.000002 0.795197 -3.233931 27.622318 0.368662 -2.238146 18.705299 0.530400 -2.668187 22.482616 0.000002 0.000001 -0.000002 0.823002 -3.286420 28.111203 0.318712 -2.084980 17.381360 0.560519 -2.739709 23.120675 0.000000 -0.000000 0.000003 0.843909 -3.325207 28.473974 0.249910 -1.850883 15.377006 0.621143 -2.877431 24.358205 -0.000001 0.000001 -0.000002 -19.550274 11.766699 11.220461 19.282903 7.302610 2.918716 5.959565 -0.127010 -8.673349 -0.231927 -0.000003 0.000001 0.000000 -0.000000 -0.000000 -5.202646 -5.766516 -9.775947 24.425749 8.553329 -5.221349 -16.073288 2.554095 10.305548 -0.048651 0.000008 -0.000002 0.000000 -0.000002 0.000000 
8.331642 194.929474 38.198792 -5.581835 -30.938021 -1.776653 3.761253 -1.920824 1.879350 3.755666 -1.684791 1.144491 3.752329 -1.683672 1.157576 -0.747597 12.567755 -0.167946 7.631544 23.603896 -10.602580 -0.000001 -0.000000 -0.000000 -0.000001 -0.000000 -0.000000 -0.000001 -0.000000 -0.000000 -0.522930 1.880599 -4.599156 -14.907433 -41.842453 -56.529842 -0.000038 -66.789811 -0.000050 -82.561646 -4.701568 5.967773 0.629730 2.881454 -24.650545 0.249262 1.839467 -15.433709 0.434709 2.412133 -20.429760 -0.000002 0.000001 0.000001 2.880798 -8.035257 11.039064 0.625934 0.078935 -1.235827 4.996179 0.601832 -11.763783 0.000003 0.000001 -0.000000 0.614898 2.848991 -24.354143 0.285912 1.967242 -16.536315 0.409962 2.344647 -19.833167 0.000001 0.000002 0.000001 0.637046 2.897354 -24.795745 0.245411 1.825381 -15.312533 0.434728 2.412168 -20.430148 -0.000001 0.000002 0.000001 2.376459 6.614826 -24.820925 0.182259 -2.463043 -13.819618 0.490750 2.557410 -21.722324 -0.000003 0.000000 0.000002 4.373395 18.040818 10.105796 12.680043 26.526387 41.721989 0.000069 100.050414 -0.000057 0.125267 -11.231254 -25.192975 0.813731 -3.269053 27.948936 0.324156 -2.102234 17.530065 0.559472 -2.737257 23.098696 0.000000 -0.000002 0.000000 -6.733499 -16.322988 -7.269461 0.937921 -0.115757 1.884197 4.747840 -34.701186 -18.869142 0.000001 -0.000001 -0.000002 0.794887 -3.233345 27.616547 0.368553 -2.237739 18.701796 0.530200 -2.667678 22.478045 0.000001 0.000003 -0.000003 0.822653 -3.285823 28.105260 0.318614 -2.084588 17.378166 0.560278 -2.739182 23.115983 -0.000000 -0.000000 0.000007 0.843583 -3.324632 28.468046 0.249799 -1.850546 15.374100 0.620896 -2.876902 24.353308 0.000001 0.000003 0.000001 -19.962479 11.694872 11.416325 19.828512 7.311617 2.895913 5.810651 -0.108753 -8.807262 -0.202971 0.000000 -0.000002 0.000000 0.000000 -0.000000 -5.895671 -5.547060 -9.448730 25.612228 8.506515 -5.736301 -16.507865 2.366187 10.322333 -0.050830 -0.000010 0.000000 0.000000 -0.000002 -0.000000 
8.112488 194.488998 37.458641 -5.666252 -31.055279 -1.760791 3.809469 -1.859494 1.651944 3.799417 -1.628842 1.096535 3.796328 -1.627736 1.109328 -0.782327 12.522692 -0.163689 7.491674 23.548914 -10.433852 -0.000000 -0.000000 -0.000000 -0.000000 -0.000000 -0.000000 -0.000000 -0.000000 -0.000000 -0.506049 1.805820 -4.368410 -15.082470 -41.968797 -56.381849 -0.000024 -66.457536 -0.000023 -82.562514 -4.158762 5.466029 0.625350 2.871904 -24.563092 0.247406 1.832664 -15.375191 0.431697 2.404018 -20.357961 -0.000000 0.000002 0.000003 2.882069 -7.995569 11.042110 0.625934 0.078937 -1.235824 4.990004 0.602935 -11.765312 0.000001 0.000001 -0.000003 0.610614 2.839522 -24.267754 0.283788 1.960056 -16.474148 0.407110 2.336718 -19.763210 -0.000000 -0.000002 0.000000 0.632609 2.887746 -24.707849 0.243554 1.818622 -15.254386 0.431710 2.404057 -20.358306 -0.000006 -0.000002 -0.000000 2.366180 6.607834 -24.731434 0.180741 -2.469245 -13.766788 0.487426 2.549034 -21.647467 0.000002 0.000000 -0.000001 4.341929 18.010895 10.249778 12.515998 26.613323 41.716306 -0.000030 99.920149 0.000037 -0.013174 -11.082066 -25.312584 0.813191 -3.268039 27.939652 0.323997 -2.101684 17.525398 0.559095 -2.736418 23.091220 0.000003 -0.000002 0.000001 -6.739924 -16.332314 -7.270093 0.937923 -0.115753 1.884196 4.742495 -34.729972 -18.895997 0.000003 0.000002 -0.000001 0.794343 -3.232304 27.607382 0.368340 -2.237157 18.696721 0.529850 -2.666864 22.470766 -0.000000 0.000001 -0.000003 0.822128 -3.284791 28.095929 0.318464 -2.084064 17.373577 0.559925 -2.738345 23.108490 -0.000001 -0.000002 0.000004 0.843026 -3.323609 28.458594 0.249694 -1.850092 15.370154 0.620500 -2.876014 24.345400 0.000003 -0.000001 0.000002 -20.481388 11.487191 11.704770 20.668590 7.340920 2.791159 5.595524 -0.081788 -8.988254 -0.165642 0.000003 0.000001 -0.000000 -0.000001 -0.000000 -6.818015 -5.459935 -8.973862 27.358403 8.436604 -6.584986 -17.170638 2.162759 10.388024 -0.050838 0.000007 0.000002 0.000000 0.000000 0.000000 
